<svg width="35" height="35" viewBox="0 0 45 46" fill="none" xmlns="http://www.w3.org/2000/svg">
<path d="M40.1786 0.8125H4.82143C2.1596 0.8125 0 2.9721 0 5.63393V40.9911C0 43.6529 2.1596 45.8125 4.82143 45.8125H40.1786C42.8404 45.8125 45 43.6529 45 40.9911V5.63393C45 2.9721 42.8404 0.8125 40.1786 0.8125ZM27.8538 39.3538C27.01 39.5045 26.6987 38.9821 26.6987 38.5502C26.6987 38.0078 26.7187 35.2355 26.7187 32.9955C26.7187 31.4286 26.1964 30.4342 25.5837 29.9118C29.3002 29.5 33.2176 28.9877 33.2176 22.5692C33.2176 20.7411 32.5647 19.827 31.5 18.6518C31.6708 18.2199 32.2433 16.442 31.3292 14.1317C29.933 13.6998 26.7388 15.9297 26.7388 15.9297C25.4129 15.558 23.9766 15.3672 22.5603 15.3672C21.144 15.3672 19.7076 15.558 18.3817 15.9297C18.3817 15.9297 15.1875 13.6998 13.7913 14.1317C12.8772 16.4319 13.4397 18.2098 13.6205 18.6518C12.5558 19.827 12.0536 20.7411 12.0536 22.5692C12.0536 28.9576 15.8002 29.5 19.5167 29.9118C19.0346 30.3438 18.6027 31.0871 18.452 32.1518C17.4978 32.5837 15.0569 33.327 13.6004 30.7556C12.6864 29.1685 11.0391 29.0379 11.0391 29.0379C9.41183 29.0179 10.9286 30.0625 10.9286 30.0625C12.0134 30.5647 12.7768 32.4933 12.7768 32.4933C13.7511 35.4766 18.4118 34.4721 18.4118 34.4721C18.4118 35.8683 18.4319 38.1384 18.4319 38.5502C18.4319 38.9821 18.1306 39.5045 17.2768 39.3538C10.6473 37.1339 6.0067 30.8259 6.0067 23.4531C6.0067 14.2321 13.058 7.23103 22.279 7.23103C31.5 7.23103 38.9732 14.2321 38.9732 23.4531C38.9833 30.8259 34.4833 37.144 27.8538 39.3538ZM18 33.2165C17.8092 33.2567 17.6283 33.1763 17.6083 33.0458C17.5882 32.8951 17.7187 32.7645 17.9096 32.7243C18.1004 32.7042 18.2812 32.7846 18.3013 32.9152C18.3315 33.0458 18.2009 33.1763 18 33.2165ZM17.0458 33.1261C17.0458 33.2567 16.8951 33.3672 16.6942 33.3672C16.4732 33.3873 16.3225 33.2768 16.3225 33.1261C16.3225 32.9955 16.4732 32.885 16.6741 32.885C16.865 32.865 17.0458 32.9754 17.0458 33.1261ZM15.6696 33.0156C15.6295 33.1462 15.4286 33.2065 15.2578 33.1462C15.067 33.106 14.9364 32.9554 14.9766 32.8248C15.0167 32.6942 15.2176 32.6339 15.3884 32.6741C15.5893 32.7344 15.7199 32.885 15.6696 33.0156ZM14.4342 32.4732C14.3437 32.5837 14.1529 32.5636 14.0022 32.4129C13.8516 32.2824 13.8114 32.0915 13.9118 32.0011C14.0022 31.8906 14.1931 31.9107 14.3437 32.0614C14.4743 32.192 14.5246 32.3929 14.4342 32.4732ZM13.5201 31.5592C13.4297 31.6194 13.2589 31.5592 13.1484 31.4085C13.0379 31.2578 13.0379 31.0871 13.1484 31.0167C13.2589 30.9263 13.4297 30.9967 13.5201 31.1473C13.6306 31.298 13.6306 31.4788 13.5201 31.5592V31.5592ZM12.8672 30.5848C12.7768 30.6752 12.6261 30.625 12.5156 30.5246C12.4051 30.394 12.385 30.2433 12.4754 30.173C12.5658 30.0826 12.7165 30.1328 12.827 30.2333C12.9375 30.3638 12.9576 30.5145 12.8672 30.5848ZM12.1942 29.8415C12.154 29.9319 12.0234 29.952 11.9129 29.8817C11.7824 29.8214 11.7221 29.7109 11.7623 29.6205C11.8025 29.5603 11.9129 29.5301 12.0435 29.5804C12.1741 29.6507 12.2344 29.7612 12.1942 29.8415Z" fill="#49484E"/>
</svg>
