<svg width="35" height="35" viewBox="0 0 45 46" fill="none" xmlns="http://www.w3.org/2000/svg">
<path d="M41.7857 0.8125H3.20424C1.43638 0.8125 0 2.26897 0 4.05692V42.5681C0 44.356 1.43638 45.8125 3.20424 45.8125H41.7857C43.5536 45.8125 45 44.356 45 42.5681V4.05692C45 2.26897 43.5536 0.8125 41.7857 0.8125ZM13.6004 39.3839H6.9308V17.9085H13.6105V39.3839H13.6004ZM10.2656 14.9754C8.12612 14.9754 6.39844 13.2377 6.39844 11.1083C6.39844 8.97879 8.12612 7.24107 10.2656 7.24107C12.3951 7.24107 14.1328 8.97879 14.1328 11.1083C14.1328 13.2478 12.4051 14.9754 10.2656 14.9754V14.9754ZM38.6016 39.3839H31.9319V28.9375C31.9319 26.4464 31.8817 23.2422 28.4665 23.2422C24.9911 23.2422 24.4587 25.9542 24.4587 28.7567V39.3839H17.7891V17.9085H24.1875V20.8415H24.2779C25.1719 19.154 27.3516 17.3761 30.596 17.3761C37.346 17.3761 38.6016 21.8259 38.6016 27.6116V39.3839V39.3839Z" fill="#49484E"/>
</svg>
